<mxfile host="www.draw.io" modified="2020-03-05T16:04:13.482Z" agent="Mozilla/5.0 (Macintosh; Intel Mac OS X 10_14_6) AppleWebKit/537.36 (KHTML, like Gecko) Chrome/80.0.3987.122 Safari/537.36" etag="oYiyolb6mQr829kvnBxa" version="12.7.9" type="github">
  <diagram id="TJVbopDNEnAdcwNr6Ii2" name="Page-1">
    <mxGraphModel dx="815" dy="477" grid="1" gridSize="10" guides="1" tooltips="1" connect="1" arrows="1" fold="1" page="1" pageScale="1" pageWidth="827" pageHeight="1169" math="0" shadow="0">
      <root>
        <mxCell id="0" />
        <mxCell id="1" parent="0" />
        <mxCell id="hg7zff2ZG15yRXZS8xJL-1" value="" style="ellipse;shape=cloud;whiteSpace=wrap;html=1;" vertex="1" parent="1">
          <mxGeometry x="190" y="60" width="140" height="70" as="geometry" />
        </mxCell>
        <mxCell id="93QJgdqJfiVn2zMciD_G-33" value="" style="rounded=1;arcSize=10;dashed=1;strokeColor=#000000;fillColor=none;gradientColor=none;dashPattern=8 3 1 3;strokeWidth=2;" parent="1" vertex="1">
          <mxGeometry x="230" y="155" width="540" height="135" as="geometry" />
        </mxCell>
        <mxCell id="93QJgdqJfiVn2zMciD_G-1" value="" style="endArrow=none;html=1;" parent="1" edge="1">
          <mxGeometry width="50" height="50" relative="1" as="geometry">
            <mxPoint x="400" y="300" as="sourcePoint" />
            <mxPoint x="400" y="200" as="targetPoint" />
          </mxGeometry>
        </mxCell>
        <mxCell id="93QJgdqJfiVn2zMciD_G-2" value="" style="endArrow=none;html=1;" parent="1" edge="1">
          <mxGeometry width="50" height="50" relative="1" as="geometry">
            <mxPoint x="600" y="300" as="sourcePoint" />
            <mxPoint x="600" y="200" as="targetPoint" />
          </mxGeometry>
        </mxCell>
        <mxCell id="93QJgdqJfiVn2zMciD_G-22" value="&lt;font style=&quot;font-size: 14px&quot;&gt;flush&lt;/font&gt;" style="edgeStyle=orthogonalEdgeStyle;curved=1;orthogonalLoop=1;jettySize=auto;html=1;entryX=1;entryY=0.5;entryDx=0;entryDy=0;" parent="1" source="93QJgdqJfiVn2zMciD_G-3" target="93QJgdqJfiVn2zMciD_G-20" edge="1">
          <mxGeometry x="0.3684" y="-20" relative="1" as="geometry">
            <mxPoint as="offset" />
          </mxGeometry>
        </mxCell>
        <mxCell id="93QJgdqJfiVn2zMciD_G-3" value="&lt;font style=&quot;font-size: 18px&quot;&gt;extent handler&lt;/font&gt;" style="text;html=1;strokeColor=none;fillColor=none;align=center;verticalAlign=middle;whiteSpace=wrap;rounded=0;" parent="1" vertex="1">
          <mxGeometry x="260" y="165" width="120" height="40" as="geometry" />
        </mxCell>
        <mxCell id="93QJgdqJfiVn2zMciD_G-4" value="&lt;font style=&quot;font-size: 18px&quot;&gt;sender&lt;/font&gt;" style="text;html=1;strokeColor=none;fillColor=none;align=center;verticalAlign=middle;whiteSpace=wrap;rounded=0;" parent="1" vertex="1">
          <mxGeometry x="440" y="165" width="120" height="40" as="geometry" />
        </mxCell>
        <mxCell id="93QJgdqJfiVn2zMciD_G-5" value="&lt;font style=&quot;font-size: 18px&quot;&gt;receiver&lt;/font&gt;" style="text;html=1;strokeColor=none;fillColor=none;align=center;verticalAlign=middle;whiteSpace=wrap;rounded=0;" parent="1" vertex="1">
          <mxGeometry x="640" y="165" width="120" height="40" as="geometry" />
        </mxCell>
        <mxCell id="93QJgdqJfiVn2zMciD_G-9" style="edgeStyle=orthogonalEdgeStyle;curved=1;orthogonalLoop=1;jettySize=auto;html=1;entryX=0.5;entryY=0;entryDx=0;entryDy=0;" parent="1" source="93QJgdqJfiVn2zMciD_G-6" target="93QJgdqJfiVn2zMciD_G-3" edge="1" treatAsSingle="0">
          <mxGeometry relative="1" as="geometry" />
        </mxCell>
        <mxCell id="93QJgdqJfiVn2zMciD_G-15" value="&lt;font style=&quot;font-size: 14px&quot;&gt;doWrite&lt;/font&gt;" style="text;html=1;align=center;verticalAlign=middle;resizable=0;points=[];labelBackgroundColor=#ffffff;" parent="93QJgdqJfiVn2zMciD_G-9" vertex="1" connectable="0">
          <mxGeometry x="-0.2205" y="5" relative="1" as="geometry">
            <mxPoint x="49" y="-5" as="offset" />
          </mxGeometry>
        </mxCell>
        <mxCell id="93QJgdqJfiVn2zMciD_G-17" style="edgeStyle=orthogonalEdgeStyle;curved=1;orthogonalLoop=1;jettySize=auto;html=1;entryX=0;entryY=0.5;entryDx=0;entryDy=0;" parent="1" source="93QJgdqJfiVn2zMciD_G-6" target="93QJgdqJfiVn2zMciD_G-16" edge="1" treatAsSingle="0">
          <mxGeometry relative="1" as="geometry" />
        </mxCell>
        <mxCell id="93QJgdqJfiVn2zMciD_G-18" value="&lt;font style=&quot;font-size: 14px&quot;&gt;doOverwrite&lt;/font&gt;" style="text;html=1;align=center;verticalAlign=middle;resizable=0;points=[];labelBackgroundColor=#ffffff;" parent="93QJgdqJfiVn2zMciD_G-17" vertex="1" connectable="0">
          <mxGeometry x="0.2348" y="-1" relative="1" as="geometry">
            <mxPoint x="-21" y="-16" as="offset" />
          </mxGeometry>
        </mxCell>
        <mxCell id="93QJgdqJfiVn2zMciD_G-6" value="&lt;font style=&quot;font-size: 16px&quot; color=&quot;#3333ff&quot;&gt;stream writer&lt;/font&gt;" style="text;html=1;strokeColor=none;fillColor=none;align=center;verticalAlign=middle;whiteSpace=wrap;rounded=0;" parent="1" vertex="1">
          <mxGeometry x="200" y="80" width="120" height="40" as="geometry" />
        </mxCell>
        <mxCell id="93QJgdqJfiVn2zMciD_G-8" style="edgeStyle=orthogonalEdgeStyle;orthogonalLoop=1;jettySize=auto;html=1;exitX=0.5;exitY=1;exitDx=0;exitDy=0;curved=1;" parent="1" source="93QJgdqJfiVn2zMciD_G-7" target="93QJgdqJfiVn2zMciD_G-6" edge="1">
          <mxGeometry relative="1" as="geometry" />
        </mxCell>
        <mxCell id="93QJgdqJfiVn2zMciD_G-7" value="&lt;font style=&quot;font-size: 14px&quot;&gt;write/flush&lt;/font&gt;" style="rounded=1;whiteSpace=wrap;html=1;" parent="1" vertex="1">
          <mxGeometry x="80" y="40" width="80" height="40" as="geometry" />
        </mxCell>
        <mxCell id="93QJgdqJfiVn2zMciD_G-39" style="edgeStyle=orthogonalEdgeStyle;curved=1;orthogonalLoop=1;jettySize=auto;html=1;entryX=0;entryY=0.5;entryDx=0;entryDy=0;" parent="1" source="93QJgdqJfiVn2zMciD_G-11" target="93QJgdqJfiVn2zMciD_G-24" edge="1">
          <mxGeometry relative="1" as="geometry" />
        </mxCell>
        <mxCell id="93QJgdqJfiVn2zMciD_G-11" value="&lt;font style=&quot;font-size: 14px&quot;&gt;packet&lt;/font&gt;" style="rounded=1;whiteSpace=wrap;html=1;" parent="1" vertex="1">
          <mxGeometry x="290" y="220" width="60" height="30" as="geometry" />
        </mxCell>
        <mxCell id="93QJgdqJfiVn2zMciD_G-31" style="edgeStyle=orthogonalEdgeStyle;curved=1;orthogonalLoop=1;jettySize=auto;html=1;entryX=0.5;entryY=0;entryDx=0;entryDy=0;" parent="1" source="93QJgdqJfiVn2zMciD_G-14" target="93QJgdqJfiVn2zMciD_G-30" edge="1" treatAsSingle="0">
          <mxGeometry relative="1" as="geometry">
            <Array as="points">
              <mxPoint x="700" y="320" />
              <mxPoint x="310" y="320" />
            </Array>
          </mxGeometry>
        </mxCell>
        <mxCell id="93QJgdqJfiVn2zMciD_G-35" value="&lt;font style=&quot;font-size: 14px&quot;&gt;Failure Recovery&lt;/font&gt;" style="text;html=1;align=center;verticalAlign=middle;resizable=0;points=[];labelBackgroundColor=#ffffff;" parent="93QJgdqJfiVn2zMciD_G-31" vertex="1" connectable="0">
          <mxGeometry x="0.3355" y="-5" relative="1" as="geometry">
            <mxPoint x="47" y="15" as="offset" />
          </mxGeometry>
        </mxCell>
        <mxCell id="93QJgdqJfiVn2zMciD_G-37" style="edgeStyle=orthogonalEdgeStyle;curved=1;orthogonalLoop=1;jettySize=auto;html=1;entryX=0.5;entryY=0;entryDx=0;entryDy=0;" parent="1" source="93QJgdqJfiVn2zMciD_G-14" target="93QJgdqJfiVn2zMciD_G-36" edge="1" treatAsSingle="0">
          <mxGeometry relative="1" as="geometry" />
        </mxCell>
        <mxCell id="93QJgdqJfiVn2zMciD_G-38" value="&lt;font style=&quot;font-size: 14px&quot;&gt;Success&lt;/font&gt;" style="text;html=1;align=center;verticalAlign=middle;resizable=0;points=[];labelBackgroundColor=#ffffff;" parent="93QJgdqJfiVn2zMciD_G-37" vertex="1" connectable="0">
          <mxGeometry x="0.4037" y="-8" relative="1" as="geometry">
            <mxPoint x="33" y="16" as="offset" />
          </mxGeometry>
        </mxCell>
        <mxCell id="93QJgdqJfiVn2zMciD_G-14" value="&lt;font style=&quot;font-size: 14px&quot;&gt;packet&lt;/font&gt;" style="rounded=1;whiteSpace=wrap;html=1;" parent="1" vertex="1">
          <mxGeometry x="670" y="220" width="60" height="30" as="geometry" />
        </mxCell>
        <mxCell id="93QJgdqJfiVn2zMciD_G-16" value="&lt;font style=&quot;font-size: 14px&quot;&gt;send data and update meta synchronously&lt;/font&gt;" style="rounded=1;whiteSpace=wrap;html=1;" parent="1" vertex="1">
          <mxGeometry x="400" y="30" width="150" height="60" as="geometry" />
        </mxCell>
        <mxCell id="93QJgdqJfiVn2zMciD_G-20" value="&lt;div&gt;&lt;span style=&quot;font-size: 14px&quot;&gt;wait for pipline being empty, and update meta on meta node&lt;/span&gt;&lt;/div&gt;" style="rounded=1;whiteSpace=wrap;html=1;align=center;" parent="1" vertex="1">
          <mxGeometry x="40" y="155" width="120" height="85" as="geometry" />
        </mxCell>
        <mxCell id="93QJgdqJfiVn2zMciD_G-40" style="edgeStyle=orthogonalEdgeStyle;curved=1;orthogonalLoop=1;jettySize=auto;html=1;entryX=0;entryY=0.5;entryDx=0;entryDy=0;" parent="1" source="93QJgdqJfiVn2zMciD_G-24" target="93QJgdqJfiVn2zMciD_G-14" edge="1">
          <mxGeometry relative="1" as="geometry" />
        </mxCell>
        <mxCell id="93QJgdqJfiVn2zMciD_G-24" value="&lt;font style=&quot;font-size: 14px&quot;&gt;packet&lt;/font&gt;" style="rounded=1;whiteSpace=wrap;html=1;" parent="1" vertex="1">
          <mxGeometry x="470" y="220" width="60" height="30" as="geometry" />
        </mxCell>
        <mxCell id="93QJgdqJfiVn2zMciD_G-30" value="&lt;font style=&quot;font-size: 16px&quot;&gt;new extent handler&lt;/font&gt;" style="text;html=1;strokeColor=none;fillColor=none;align=center;verticalAlign=middle;whiteSpace=wrap;rounded=0;" parent="1" vertex="1">
          <mxGeometry x="240" y="340" width="140" height="40" as="geometry" />
        </mxCell>
        <mxCell id="93QJgdqJfiVn2zMciD_G-34" value="&lt;font style=&quot;font-size: 16px&quot;&gt;SDK Packet Pipeline&lt;/font&gt;" style="text;html=1;strokeColor=none;fillColor=none;align=center;verticalAlign=middle;whiteSpace=wrap;rounded=0;" parent="1" vertex="1">
          <mxGeometry x="580" y="120" width="170" height="40" as="geometry" />
        </mxCell>
        <mxCell id="93QJgdqJfiVn2zMciD_G-36" value="&lt;font style=&quot;font-size: 14px&quot;&gt;update meta locally&lt;/font&gt;" style="rounded=1;whiteSpace=wrap;html=1;" parent="1" vertex="1">
          <mxGeometry x="670" y="340" width="140" height="40" as="geometry" />
        </mxCell>
      </root>
    </mxGraphModel>
  </diagram>
</mxfile>
